<?xml version="1.0" encoding="UTF-8"?>
<svg version="1.1" xmlns="http://www.w3.org/2000/svg" width="128" height="128">
<path d="M0 0 C42.24 0 84.48 0 128 0 C128 42.24 128 84.48 128 128 C85.76 128 43.52 128 0 128 C0 85.76 0 43.52 0 0 Z " fill="#323232" transform="translate(0,0)"/>
<path d="M0 0 C3 1 3 1 3.99028015 2.62484741 C4.27925674 3.32920929 4.56823334 4.03357117 4.8659668 4.75927734 C5.20029221 5.55876801 5.53461761 6.35825867 5.8790741 7.18197632 C6.23222183 8.05778351 6.58536957 8.9335907 6.94921875 9.8359375 C7.32552933 10.74389069 7.7018399 11.65184387 8.08955383 12.58731079 C9.29922608 15.51239415 10.49363168 18.44343552 11.6875 21.375 C12.47228548 23.2816709 13.25808223 25.18792589 14.04492188 27.09375 C15.21557019 29.93037361 16.38435894 32.76766961 17.5463562 35.60784912 C19.45371861 40.26892347 21.38273662 44.91838335 23.36572266 49.54785156 C23.73905228 50.42148346 24.1123819 51.29511536 24.49702454 52.19522095 C25.2031787 53.84269221 25.91371933 55.4882925 26.62931824 57.13168335 C29 62.66911184 29 62.66911184 29 66 C25 64 25 64 20 52 C7.46 52 -5.08 52 -18 52 C-19.98 56.29 -21.96 60.58 -24 65 C-25.485 65.495 -25.485 65.495 -27 66 C-26.2953978 61.07456556 -24.38063002 56.76161825 -22.46484375 52.2109375 C-22.10789932 51.35303619 -21.7509549 50.49513489 -21.38319397 49.61123657 C-20.2389187 46.86401232 -19.08828763 44.11950171 -17.9375 41.375 C-17.19034186 39.58350567 -16.44359333 37.79184045 -15.69726562 36 C-13.84497472 31.55642523 -11.98470632 27.11624265 -10.12176514 22.67712402 C-8.9749366 19.94018548 -7.83307672 17.20121114 -6.69189453 14.46191406 C-5.96265315 12.71676008 -5.23332721 10.97164143 -4.50390625 9.2265625 C-4.16528061 8.41134125 -3.82665497 7.59612 -3.47776794 6.75619507 C-1.11347243 1.11347243 -1.11347243 1.11347243 0 0 Z " fill="#313131" transform="translate(63,31)"/>
<path d="M0 0 C3 1 3 1 3.99028015 2.62484741 C4.27925674 3.32920929 4.56823334 4.03357117 4.8659668 4.75927734 C5.20029221 5.55876801 5.53461761 6.35825867 5.8790741 7.18197632 C6.23222183 8.05778351 6.58536957 8.9335907 6.94921875 9.8359375 C7.32552933 10.74389069 7.7018399 11.65184387 8.08955383 12.58731079 C9.29922608 15.51239415 10.49363168 18.44343552 11.6875 21.375 C12.47228548 23.2816709 13.25808223 25.18792589 14.04492188 27.09375 C15.21557019 29.93037361 16.38435894 32.76766961 17.5463562 35.60784912 C19.45371861 40.26892347 21.38273662 44.91838335 23.36572266 49.54785156 C23.73905228 50.42148346 24.1123819 51.29511536 24.49702454 52.19522095 C25.2031787 53.84269221 25.91371933 55.4882925 26.62931824 57.13168335 C29 62.66911184 29 62.66911184 29 66 C25 64 25 64 20 52 C7.46 52 -5.08 52 -18 52 C-19.98 56.29 -21.96 60.58 -24 65 C-25.485 65.495 -25.485 65.495 -27 66 C-26.2953978 61.07456556 -24.38063002 56.76161825 -22.46484375 52.2109375 C-22.10789932 51.35303619 -21.7509549 50.49513489 -21.38319397 49.61123657 C-20.2389187 46.86401232 -19.08828763 44.11950171 -17.9375 41.375 C-17.19034186 39.58350567 -16.44359333 37.79184045 -15.69726562 36 C-13.84497472 31.55642523 -11.98470632 27.11624265 -10.12176514 22.67712402 C-8.9749366 19.94018548 -7.83307672 17.20121114 -6.69189453 14.46191406 C-5.96265315 12.71676008 -5.23332721 10.97164143 -4.50390625 9.2265625 C-4.16528061 8.41134125 -3.82665497 7.59612 -3.47776794 6.75619507 C-1.11347243 1.11347243 -1.11347243 1.11347243 0 0 Z M-2 12 C-5.40097172 19.04314711 -8.56218643 26.14086081 -11.375 33.4375 C-11.63748535 34.09878906 -11.8999707 34.76007813 -12.17041016 35.44140625 C-13.78789839 39.72867218 -14 42.20664567 -14 47 C-4.1 47 5.8 47 16 47 C16 40.93956859 15.81499291 38.67936433 13.62890625 33.4453125 C13.13712891 32.25421875 12.64535156 31.063125 12.13867188 29.8359375 C11.61332446 28.59893998 11.08793334 27.36196102 10.5625 26.125 C10.03994217 24.865028 9.51844773 23.60461441 8.99804688 22.34375 C7.09610634 16.8076207 7.09610634 16.8076207 4 12 C2.00041636 11.95919217 -0.00045254 11.95745644 -2 12 Z " fill="#000000" transform="translate(63,31)"/>
</svg>
